<svg xmlns="http://www.w3.org/2000/svg" width="172.786" height="181.707" viewBox="0 0 172.786 181.707">
  <g id="Group_4" data-name="Group 4" transform="translate(-836.129 -409.384) rotate(-25)">
    <path id="svgviewer-output" d="M41.509.635,2.3,23.245a4.524,4.524,0,0,0,.537,8.1L13.611,35.8v7.955a4.529,4.529,0,0,0,8.162,2.7l4.128-5.57,10.546,4.354a4.534,4.534,0,0,0,6.2-3.5l5.6-36.493A4.533,4.533,0,0,0,41.509.635ZM18.135,43.754V37.665l3.449,1.423Zm20.037-2.7-14.5-5.985L36.891,16a1.511,1.511,0,0,0-2.234-2L14.723,31.369l-10.16-4.2L43.771,4.546Z" transform="translate(700.81 778.455) rotate(47)"/>
    <path id="Path_3" data-name="Path 3" d="M0,71.4S24.319,26.3,53.223,8.448,120-7.836,120-7.836" transform="translate(544 829.506)" fill="none" stroke="#000" stroke-linecap="round" stroke-width="5" stroke-dasharray="5 20"/>
  </g>
</svg>
